<svg height="512pt" viewBox="-42 0 512 512.00062" width="512pt" xmlns="http://www.w3.org/2000/svg"><path d="m346.199219 110.984375c0 5.523437-4.476563 10-10 10-5.519531 0-9.996094-4.476563-9.996094-10 0-5.519531 4.476563-9.996094 9.996094-9.996094 5.523437 0 10 4.476563 10 9.996094zm0 0"/><path d="m366.132812 285.246094c-11.148437-5.566406-24.507812-3.980469-33.984374 4.007812l-55.023438 45.742188c-4.382812-11.132813-15.238281-19.039063-27.914062-19.039063h-113.414063c-13.351563 0-25.910156 5.203125-35.355469 14.644531l-44.28125 44.285157c-1.71875-1.289063-3.816406-2.007813-5.988281-2.007813-.105469.023438-3.945313-.195312-7.074219 2.929688l-38.4375 38.441406c-.617187.386719-1.199218.84375-1.734375 1.378906-3.902343 3.902344-3.902343 10.230469 0 14.136719l.175781.171875c0 .003906.003907.003906.003907.003906l79.128906 79.132813c3.902344 3.902343 10.234375 3.902343 14.140625 0l39.996094-39.996094c3.902344-3.902344 3.902344-10.234375 0-14.136719l26.996094-27h90.285156c12.535156 0 24.535156-4.664062 33.785156-13.136718l85.824219-78.675782c16.089843-14.742187 12.425781-41.09375-7.128907-50.882812zm-276.828124 202.617187-64.988282-64.992187 25.851563-25.851563 64.988281 64.988281zm270.445312-166.476562-85.824219 78.675781c-5.550781 5.082031-12.75 7.882812-20.273437 7.882812h-94.429688c-2.648437 0-5.191406 1.054688-7.066406 2.929688l-29.925781 29.921875-51.851563-51.847656 44.203125-44.203125c5.667969-5.667969 13.203125-8.792969 21.214844-8.792969h113.414063c5.515624 0 10 4.488281 10 10 0 5.339844-4.324219 10-10 10h-79.988282c-5.523437 0-10 4.476563-10 9.996094 0 5.523437 4.476563 10 10 10h79.988282c9.015624 0 17.609374-4.125 23.257812-11.070313l72.511719-60.289062c3.417969-2.882813 8.214843-3.453125 12.210937-1.457032 7.019532 3.515626 8.355469 12.941407 2.558594 18.253907zm0 0"/><path d="m51.914062 198.222656-2.214843 7.75h-12.457031c-5.523438 0-10 4.476563-10 10 0 5.519532 4.476562 9.996094 10 9.996094h13.816406l11.703125 23.410156c5.117187 10.230469 15.398437 16.585938 26.832031 16.585938h275.242188c11.433593 0 21.714843-6.355469 26.832031-16.585938l11.703125-23.410156h13.820312c5.519532 0 9.996094-4.476562 9.996094-9.996094 0-5.523437-4.476562-10-9.996094-10h-12.457031l-2.21875-7.746094c-6.527344-22.851562-17.175781-44.207031-31.652344-63.46875-3.316406-4.414062-9.582031-5.304687-14-1.984374-4.414062 3.316406-5.304687 9.582031-1.984375 14 12.996094 17.296874 22.554688 36.457031 28.410156 56.949218l.644532 2.25h-313.4375l.644531-2.253906c19.644531-68.757812 82.722656-123.730469 156.074219-123.730469 24.519531 0 48.359375 6.039063 70.847656 17.945313 4.882812 2.582031 10.933594.722656 13.515625-4.160156 2.585937-4.878907.722656-10.929688-4.15625-13.515626-15.140625-8.011718-31.261719-13.726562-47.699219-17.003906 4.707032-6.558594 7.488282-14.589844 7.488282-23.257812 0-22.054688-17.941407-39.996094-39.996094-39.996094-22.050782 0-39.992188 17.941406-39.992188 39.996094 0 8.667968 2.78125 16.699218 7.488282 23.257812-68.039063 13.644532-123.589844 67.734375-142.796876 134.96875zm312.921876 47.746094h-275.242188c-3.8125 0-7.238281-2.121094-8.945312-5.53125l-7.230469-14.46875h307.597656l-7.234375 14.46875c-1.707031 3.410156-5.132812 5.53125-8.945312 5.53125zm-157.617188-205.972656c0-11.027344 8.96875-20 19.996094-20s19.996094 8.972656 19.996094 20c0 11.023437-8.96875 19.996094-19.996094 19.996094s-19.996094-8.972657-19.996094-19.996094zm0 0"/></svg>